<svg id="miedo" xmlns="http://www.w3.org/2000/svg" viewBox="0 0 1024 1024">
  <path id="miedo-outer" fill="#3d3c3d" d="M516 195v-5l2-5v-6l2-8 2-12c2-4 5-7 6-13v-7l2-8c0-4-2-7 3-10 5-4 8-2 12-2l7-1 7 1h6l8 1v8l-5 9h-11l-8-1c-1 3-1 3-4 4 2 6 2 8 0 14l6-4c6 6 4-1 13 4l-4 8-4 11-15-2c1 5-3 9-2 14 2 6 13 1 21 3l-9 18h-10l-6 1h-4l-6 1h-11c-2-7 1-8 2-13zm-12-75l6 1c3 0 4-2 8-1h9l1 1v2l-5 13-14 1 1 4-6 15v7l-3 6-2 7-2 5-3 12-5 14h-5l-15-2 10-22v-6l5-16v-7l5-7 2-9h-7l-7-2c-2-1-1-4 0-6 2-9 2-6 8-12 10 3 9 1 19 2zm120 62l1-5 2-5 5-14v-5l3-6 1-5 2-5c1-4-3-5 0-10 2-3 4-7 8-7h6c3 0 4-2 7-1l11 3 9 6 2 5 1 5-1 11v4l-5 10c-1 2-12 8-14 9v8c4 3 3 3 4 7l2 8c-1 9-12 10-19 12-2-7-3-17-2-24-4 3-6 4-8 9-1 5 0 11-5 14-3 2-6 0-8-1-4 0-3 2-10 0l8-23zm53 4v-7l3-8 1-7 4-7v-5l4-7 1-7 6-5 7-8 6-2c6-3 3-5 12-4l5 1 4 2c5 4 3 4 5 9l2 5-2 4c7 7 2 8 0 14v8c-1 3-6 10-7 23-10 2-9 10-12 13-2 2-7 3-10 4-7 4-20 12-23 1l-1-5h-6l1-12zm66-21v-8l5-12 1-8 2-4c1-4 0-11 10-14 4-1 5 2 9 2l6-1 11 2c2 1 2 2 2 3 2 0 3 0 4 2 4 3 6 18 4 23 0 2-2 3-3 5-2 3-2 6-4 7l-5 2-5 5-4 2c-1 3 4 3 5 5v7l4 8v8l-16 9c-1-10-2-9-6-17-1-2-2-5-4-5s-5 2-6 4l-3 17-8-3c-3 2-11 2-15 2 1-7 3-6 5-11l1-6c3-6 8-8 4-17 2-2 5-4 6-7zm-312-45c8 0 6-1 12 5l4 4c2 4 0 7-1 9v6l-1 4v9l-5 16-1 7c-2 3-6 5-9 10l-5 7c-3 3-14 11-19 12-4 0-5-4-8-5l-4-3c-2-1-2-3-3-5l-3-3v-13l1-8 2-6v-7l5-12 3-4c1-3-1-6 2-10 2-4 4-3 7-5 9-7 5-7 17-8h6zm-128 90l-6-2c-3 0-5 2-8 1l-5-1c-3 0-7 2-9-1-3-4 4-11 4-16v-4c0-4 3-8 4-12v-9c0-6 2-5 3-10v-6l4-7c1-6 3-15 7-19s10-4 16-3l6 1 17-1c1 12 0 6-2 13l-1 6-11-3c-4 4-6 3-11 1l-2 3c1 6-1 7-3 12h7c3 0 9-2 12 1 2 2 1 6 0 8-5 13-10 9-21 10 1 8-1 6-3 11l-2 8 9 1 12-2 1 1-4 17-14 2zm71-85c2 0 4-1 5 1 3 1 3 5 5 8l4 6-2 7-1 10-2 15-2 5-3 8-3 4-3 4c-3 4-13 10-18 11h-8l-11 2c-2 1-5 1-6-1-2-1-1-4 0-6 1-4 4-7 4-11v-5c1-3 3-5 3-8l1-16 2-5 4-13c1-5 2-13 5-17 3-3 7-2 10-3 7-1 11 3 16 4zm192 68l1-6 3-10 3-7v-5l2-6v-5l3-7v-6l3-6v-8c2-7 8-7 14-7l9 1c7 1 3-2 11 3l4 3c2 2 1 4 2 8 4 9 3 9 2 18l-1 6c0 2-2 3-3 5l-3 4c-2 2-6 3-9 4v2c4 3 2 5 2 9l2 20c-8 2-7 5-18 5 0-5 1-7-1-11l-1-4c-1-5 2-3-3-10l-3 7c-1 5-1 15-10 17l-14-1 5-13zm-395 4l1-5 5-15 6-10 3-14 4-7 1-8 5-8c1-2 1-5 3-6 2-3 13-3 14 1l1 12 1 8-2 12c8-7 5-5 10-11l5-5 4-9 5-4c7-7 9-7 19-4l-4 9-1 8-4 8-4 13-1 5c-1 3-5 7-6 11v6c-1 3-3 4-3 7-2 3-1 4-2 8l-5 9c-2 1-17 2-18-2-2-5 5-9 4-17l-11 15c-2 1-4 3-6 1v-7l2-16c-6 7-3 5-5 11l-3 7c-1 3-2 6-5 8s-13 0-17 0c1-6 2-6 4-11zm82-25l5-16 4-9v-6l1-6c1-4 2-11 6-12h6c3 0 8-1 10 2l-2 7-2 11-2 4-5 14v6l-3 7-1 7-2 6-1 6-3 8c-1 3-1 7-5 7h-5c-3 0-11 0-11-4l5-12c1-6-2-10 6-15l-1-5zm-85-41l3-4 4-2c13-4 10 20-2 18l-8-4 3-8zm485 18l-1 9c12-5 15-11 9-23l-8 14zm126-3c1-3-1-10-6-10l-5 1c2 7 0 5-2 11l-1 7c6 1 12-3 14-9zm-364-1l1 3-8 20 1 20c6-3 4-5 8-10l3-3 6-16 1-11v-5l2-7-14 9zm181-5v2l4 2c-6 9-3 5-6 14 10 1 13-8 14-16l-7 2v-6l-5 2zm114 2l-12 26-2 16c10 3 10-3 14-10l3-4c2-5-1-2 6-13-3-5-2-5 1-10-3-4-2-4-2-9l-8 4zm-352 9c2 7-1 8-3 14v6l-3 13c3-1 9-5 11-8l3-14c2-8 4-4 3-15l-5-2-6 6zm-186 17l-9 20c-2 9-2 8-6 17l-2 5c-3 4-16-3-16-3l-1-3 7-17 3-4 12-24c1-4 4-11 10-10 4 1 6 6 7 9-5 4-3 5-5 10zm273 26c9-4 15 11 6 19-4 3-15 4-10-3l2-2c-12 2-3-12 2-14zm349 21c-2 1-8 2-9 0s2-5 3-7v-7c0-2 2-3 3-4 6-5 8-2 13 1-1 8 0 14-10 17zm-609 5l5 2 14 1c4 0 9-4 12 0 2 3-1 6-2 9s-1 6-3 7c-1 2-11 3-13 2-2 0-3-2-5-3l-2 6-2 5c-2 9 14 3 17 7 2 2-1 6-2 8l-3 7c-5 4-14 2-20 2l1 4-5 13 4 5c3-1 8-4 11-2 6 3-1 15-4 17-2 2-4 1-7 1l-12-1h-6c-4 0-12 1-13-4s5-12 6-16l1-5 4-9 3-15 2-6 1-6 4-7c3-6-3-9 4-13 0-6 4-9 10-9zm92 27v-5l3-6v-6c1-4 7-8 11-9l9 2 17 3 3 5c3 3 4 3 2 8 6 5 2 6 1 11v6c-1 5-8 14-11 18l-4 4-6 1-7 4c-4 0-6-2-8 0l-1 6-4 7c-2 4 0 10-5 13h-5c-3 0-5 2-7 1l-8-3 6-16 2-6 2-5v-7l8-15c-3-5 1-6 2-11zm133 53l-3-11c-1-3 1-7-2-7-5-1-3 7-4 10l-3 6c-1 4-1 9-5 11h-8c-2 0-5 0-7-2s-1-5 0-8l7-19 3-8v-6l3-10 5-17c1-6-3-9 5-14 6-5 10-2 17-2l1 10v6l1 6-1 6 2 6c1 6-2 4 3 12 1-8 2-11 5-19l3-6 1-6 1-5 1-6c2-3 10-8 12-2 6-1 7-1 12 1l-4 8-5 11-2 6-4 6-1 9-3 7v5l-5 8-1 6-2 5c-1 4 0 8-4 11-5 4-9-1-16 1l-2-9zm55-75c3-4 8-2 12-3l6-1c3 1 4 3 7 3 4 0 17-7 20 5l-3 1c2 5 1 11-5 11h-8c-2 1-1 5-1 7l-3 3-4 13v6l-3 6-1 6-5 8c-1 4-2 16-5 18-4 3-10 1-14 1h-6l5-12 3-10 1-5 3-6v-6l5-15 2-5 3-10-15 1c0-3 4-15 6-16zm34 55c-1-2-2-3-1-5l3-8 1-9 5-7 1-8 5-5c3-3 4-7 9-10 5-5 8-3 12-4 8-1 11-5 18 2l4 5c3 10-1 11-2 16l1 6-4 23-3 7-2 7-3 3-4 5-13 8c-3 2-6 5-9 5-7 2-12-6-16-11-1-1-3-3-3-5l2-6-4-2 3-7zm-255-57h14l11 6c-2 8 1 14-8 19h-6c-3-1-4-7-9-7-4 1-5 5-9 9 5 3 3 5 2 10 5 2 3 4 6 8l4 4c4 4 4 8 5 13v6l-6 7c-2 3-2 5-5 7l-8 3c-3 1-4 3-8 3l-16-5-4-3-5-4c-2-5 6-16 11-16s6 5 10 6c3 1 7-1 10-2 0-5 0-8-4-12-3-4-6-1-5-8-5-2-6-3-5-8-5-4-1-7 0-12 0-6 0-6 3-11 4-5 5-3 6-10l16-3zm96 19l3-5 6-10c2-3 8-6 12-3s3 9 4 14c2 6 1 7 1 9l2 5c0 1-2 6-1 16 1 7 4 4 2 17l3 1-2 14 2 3c2 10-7 7-12 7l-5 1-2-18h-11c-2-1-5-2-7-1-3 1-3 4-4 7l-8 13-10-3c-4-1-9-1-7-7 1-4 5-6 7-9l2-5 3-6 1-5 8-12 4-2c0-10 5-13 9-21zm225 34l1-5 5-15 4-11v-6c1-4 7-11 11-5 8-1 11-1 9 8l-1 4-4 6-4 12-8 13c-2 3-3 8-7 9h-9c0-7 1-5 3-10zm-265-35l-4 4c3 7 0 5-1 11l-1 6 8-4c4-11 5-6 0-17h-2zm224 15c2 5-3 7-4 11-1 3-2 17-1 20l2 5c3-4 4-6 9-8 0-7 2-6 3-11 2-6 2-12 2-14 1-4 4-5 2-16-7 2-9 7-13 13zm-174 17l1-7c-6 1-8 5-1 7zm54-2v4h2v-4h-2zm151 23c2-3 10-4 13-2 5 4 2 19-7 18-5-1-15-7-6-10v-6z"/>
  <path id="miedo-inner" fill="#bd1542" d="M533 132c1-4 0-6 2-8s5-2 8-1c5 0 6-2 9-1l8 1c2 0 5-1 7 1 2 1 2 3 2 5l-3 1 1 3c-6 2-15-1-18 0l-7 6v15c1 4 14 3 17 2l-6 11-9 1-7 2-2 8v7l-3 9c11-4 5-2 13-2l8-1c0 5-1 10-6 13-5-4-6-1-12 0h-8c-5 1-4-1-10-1l2-8 2-12v-3l4-21c7-7 6-18 8-27zm-48-8h36c1 5 1 5-2 10-7-2-8 0-14 2 3 11-2 11-5 20v7l-4 8-3 12-1 5-2 6-2 10-14-2c8-13 7-20 8-26l3-8c2-7 3-5 2-13 6-5 6-9 8-16l1-7c-9 3-7 3-15 0 0-3 0-8 4-8zm161 0l5 1 5-2c4-1 16 4 19 8l3 8c1 2 0 4-1 6v5c0 2-3 10-5 11l-12 9-1 11c0 2 1 2 2 3 0 4 0 4 3 7-2 9-3 10-12 11l-2-14v-5l-4-12c-8 4-4 6-6 12l-4 10c-1 3 0 5-3 8s-4-1-11 1c0-9 3-12 6-20l1-5 3-4v-7l4-8 1-7 5-16c0-2-1-2-2-3 1-3 2-8 6-8zm34 56l3-8 2-7 3-7 1-6 5-12 10-10 6-3 6-4h9l6 4 3 20-2 6v6l-4 8-3 12-9 10c-2 2-1 4-2 6l-6 3c-4 1-17 9-20 6-3-2-3-8-4-11l-3 1-1-14zm68-25l4-12 1-5 2-6c1-2 0-4 2-6 3-5 8-2 12-2h8c3 1 13 4 15 7v5l1 6c1 4-2 13-4 15-2 3-17 10-18 13-1 5 4 7 7 8l-1 6c1 1 9 13-2 14l-4 5c0-12-6-11-4-20l-5-1c0-6-4-7-7-3l-2 5c-3 7-4 10-5 18l-4-3c-6 3-6 3-12 2l5-12 4-7 3-10c1-7 4-5 1-13l3-4zm-357 26l4-18c0-11 7-16 8-22 0-10 1-5 7-10l6-6c3-1 18-2 21-1l6 6 1 3-1 11-1 6v7l-5 15-2 7-8 9-3 5-15 11c-6 2-5-4-14-5-1-8-5-6-4-18zm212-56c5 0 10-1 13 4l4 18v10l-4 1c0 3 0 6-3 8-2 2-7 2-9 6l2 7v12c0 3 2 6 0 9s-6 3-9 4c1-11-1-7-2-13-1-5 2-5-3-9 1-7-2-8-6-4l-5 13c-1 2 1 12-7 12-1 1-6-1-8-1 1-6 3-6 4-10v-5l3-10c2-6 5-5 2-12 6-9 3-8 4-12 0-3 2-4 3-7v-5l4-10-3-1c4-11 12-6 20-5zm-290-1l6 1 6-1 8 1-5 11-5-1h-12l-8 7 2 3-4 13 7-1h12c4 2 0 9-3 11-2 1-12-1-15-1l-2 10c-1 5-3 3-4 10v7l13 2c2-1 5-2 6 1 1 4-3 8-6 9-5 1-9-1-13-1h-18c1-8 3-7 4-12v-8l5-11 1-12 2-7 1-6c1-7 6-13 5-20 6-5 9-5 17-5zm23 68l2-11c1-4 2-3 2-8l1-8v-6c0-3 2-4 3-7l1-6c1-3 2-3 2-7l4-12c1-2 3-1 5-2 9-1 8 0 16 3l6 3 2 4c6 11 3 4 3 15l-2 12-1 5c-3 15-4 19-17 29-2 2-8 4-11 4h-7c-2 0-4 2-13 3 1-6 2-6 4-11zm-128-65c4 3 2 9 3 13v8c0 3-4 13 1 13s9-7 11-10l7-7 4-8 5-5c5-6 4-6 12-4l-4 14-4 7-4 13-1 6-6 11-1 6-2 7c-2 5 2 2-5 14-5-1-8 1-10-1s-1-4 0-6c4-10 6-10 7-13 2-3-1-2 2-10l-1-1c-12 7-17 22-24 26l2-11 1-5-2-11c-5-2-6 6-7 8l-2 4c-2 4-3 16-7 19-2 2-8 1-11 0l7-23c1-5 4-8 6-12 3-7 3-13 4-15l5-9 1-8c3-5 5-4 5-11l8 1zm72-1c1 7-3 13-5 20-1 4 0 5-2 8l-3 7v7l-4 15-4 7v5c-1 5-4 4-2 10l-13-2 4-11 1-7c1-5 5-4 5-11-1-6 1-7 3-12l2-6 5-10c0-3-2-12 2-20 6 2 5 1 11 0zm-101 7c0 10-13 3-5-3l4-1 1 4zm586 4l-1 6c-2 3-4 1-3 7 0 5-1 8 2 9h5c15-2 23-21 7-28-4 0-9 2-10 6zm-111 7c-1 0-2 0-3 2-1 0-3 11-2 12l2 3c3 1 6-1 8-2l5-4c2-2 5-16 5-20l-3 1c-5-12-11 2-12 8zm-224 14v-5l1-5-1-4c0-3 4-10-1-11-5-2-8 4-11 6-2 2-3 2-6 2l-1 9c-2 5-7 15-6 21l2 12v7c2 2 4 2 6 0 4-3 5-7 6-11l3 1c2-5 8-17 8-22zm282 18l5-5 1-6 3-6v-6l2-6c1-4-1-13-6-13l-11 6-1 6c-1 4-4 7-8 9 2 9-1 7-3 14v10l-2 9c3 2 3 2 4 6 9-3 12-10 16-18zm-118-37c-2 3 0 5-1 8l-5 14 10 2c7-1 8-9 14-11l-2-15-5 2c-3-5-8-5-11 0zm-234 0c-2 2-1 4-2 7l-2 4c-2 3-1 4-1 6l-4 9v5l-1 5c-2 7 1 3-4 13l5 1c4-1 14-8 16-12s-1-5 3-10l3-13v-11h-5c-1-7-6-7-8-4zm-192 28l-7 18-2 7c-2 6-5 8-6 15-4 0-9 0-9-5-1-2 6-14 8-17l6-15c3-6 6-9 8-17 9 1 5 8 2 14zm275 34c4-7 10-1 8 5-1 3-2 4-5 5v-7l-5 1 2-4zm351-2l6 1c0 6-2 10-8 12l3-6c-2-2-5-5-1-7zm-604 26h6l7 2 10-2-3 11-11 1-7-1-4 4-6 19 6-1 13 1c-1 6-1 6-5 11-4 0-12-2-15 0s-3 5-4 8l-3 10-3 8 6-1c5 6 5 3 12 2 0 5 0 6-3 11h-10l-6-2h-5l-10 1c-1-9 4-12 5-16v-5l3-7 4-18 4-7c0-2-1-3 1-6 2-6 3-4 3-12 0-5 3-5 3-10 8-4 6-1 12-1zm94 9c1-3 0-5 4-8 5-3 7 0 11 1l10 2c2 1 4 0 6 2 3 2 6 10 6 13l-1 6-1 5-5 11c-3 5-4 2-8 10-9-2-7 1-12 2h-7c-6 1-5 6-6 10l-4 7-1 10-8 1c-11 1 0-13 0-16 1-7 3-7 4-11v-7l5-11 1-8 5-9-3-1 4-9zm128 57l-2-4v-5l-1-5c0-3 1-8-3-8-5-1-5 6-5 9l-4 7v6l-2 6-2 7c-1 2-8 1-10 0s-2-3-1-5l5-14c2-3 3-9 4-13v-6l3-11 2-5 1-7 3-5v-8c2-5 8-5 12-2 5 3 3 8 3 12l1 6v6l2 7v5l3 11 2 2 3-8 2-6 2-6 2-5 3-6v-6c2-7 5-3 3-13l9 1 7-1-4 11-3 6-2 6c-2 4-5 6-5 10v5c0-3-6 17-4 14l-4 7c-2 4-3 16-6 18-4 4-7 0-12-1l-2-12zm56-64c2-3 7-1 10-1 7-1 6 1 11 1 7 0 5-2 16-1-2 6 0 9-2 11h-6c-3 0-6 1-7 4-2 2-4 12-5 15l-3 7v7l-3 5-2 7-6 16v7c-7 0-6 2-13-1l6-16 1-7 3-5v-5l4-16 4-5v-6c1-5 4-5-2-9l-1 3-7-2c0-2 0-8 2-9zm-247 66c8 3 19-4 16-13-1-4-6-8-9-12-2-2-7-13-6-15l2-6 1-7c0-2 2-4 4-5 5-5 5-7 12-8 5-1 6 1 9 1s5-2 7-1c2 0 5 4 7 5 0 8 1 12-9 13l2-8-10-1-11 4c2 10-5 8 0 14-1 12 10 16 13 25v12l-5 6c-4 7-4 5-10 6-4 1-6 5-10 4-5-1-2-4-11-3-3-5-3-6-8-7l6-10 10 6zm137-67c4 7 2 4 3 11l2 6v5l1 6-1 6c0 7 3 15 3 18v8l2 11 1 8c-6 2-7 2-12-1 1-4 1-9-2-13-5-4-19-4-24 0s-5 13-9 15-5-2-13-2l8-11 7-17 3-3 3-5 4-4 2-9 5-8 3-4 3-6 4-8 7-3zm160 11l9-8 7-1 12-1 7 4v10c-1 2-3 4-3 7l1 6-1 9-2 12-3 6c-2 6-2 9-8 14-3 3-6 5-10 6-4 2-8 7-12 6l-4-2c-9-4-2-6-10-10 4-12 1-17 1-21 0-3 2-5 3-8l1-8 3-6c4-7 0-7 9-11v-4zm-223 1l1 3c-6 3-5 5-1 10l-4 3-3 13c5 0 14-3 17-7 3-3 7-14 7-18l-6 1 1-5h-12zm275 33l4-14 2-5 2-5 2-9 13-1c-5 14-4 9-7 14l-3 11-6 10c-2 5-4 10-10 9l3-10zm-44 20l7-6 1-5 3-7 2-14 2-6c1-3 1-12-3-14-2-1-9 3-11 5l-2 5c-2 2-4 3-4 5l-1 6-4 7-2 19c0 3 2 3 2 12 6-2 6-3 10-7zm-178-33l-11 18h7l9 2 1-11-1-11-5 2zm217 36c2 8 2 14-8 10l2-8 6-2z"/>
</svg>