<svg xmlns="http://www.w3.org/2000/svg" viewBox="0 0 512 512">
  <style>
    /* <![CDATA[ */
    path {
      fill: #FCD02C;
      stroke: #111;
      stroke-width: 10px; /* Note: The value of a pixel depends
                             on the view box */
    }
    /* ]]> */
  </style>
  <path d="M266 19c5 3 6 14 6 20v48c1 7-2 15 5 19 6 4 9 1 14 3l10 4c6 2 12-1 15-6l15-28c3-4 6-9 12-8 8 2 4 17 2 22l-6 14c-2 4-5 7-4 12 0 3 6 10 8 12l6 3c2 1 3 3 5 3 8 2 15-10 20-14 4-3 5-2 10-7 3-3 6-8 10-8h5c7 2 17 7 16 16-1 7-11 13-16 17l-9 11c-6 5-10 8-7 17 1 4 4 7 7 10 4 5 5 11 9 13s9 0 13-1l15-6 7-3c6-2 16 2 16 9 0 5-6 7-9 9-13 7-15 4-25 9-3 1-8 3-8 7v8c0 10 0 15 8 23 2 2 4 4 7 4 5 2 8-1 12-1l7 1h15c9 0 9-2 14-2s6 2 10 3l9 1c3 2 5 12 5 16-1 9-9 11-17 10h-5-7-6-7-6l-17 1c-6 0-9-3-14 0-9 5-7 9-9 17l-2 12c0 11 7 10 11 12l7 3 19 7c4 3 12 9 9 15-1 3-5 4-8 4-7 0-15-4-21-8-5-3-7-2-11-4-5-2-9-10-19 0-5 6-4 8-7 12-4 4-11 9-12 15-1 7 6 10 10 14l14 16 3 5c3 4 9 8 4 14-3 4-12 9-18 7l-13-9c-6-6-18-22-27-23l-17 8c-4 3-4 6-4 10-1 12 7 19 11 29 1 4 2 12-2 15l-6 1c-9-2-9-10-14-16l-7-18c-1-4-2-8-6-9h-10l-8 2c-14 5-11 18-11 30v16c0 10 2 8 0 20l-1 11c-4 9-20 11-26 1-5-7-1-16-1-24v-22c0-7-1-7-2-11v-7c0-14-10-13-21-16-5 0-7-3-12 0-5 5-7 13-10 19-1 6-4 7-6 11l-3 7c-3 4-10 5-14 2-5-4 0-12 2-16l4-10 5-9c3-7 2-16-4-20l-9-5-9-6c-2-2-5-3-8-3-5 1-7 6-10 9l-9 6c-6 6-11 13-19 15-5 2-14-3-17-7l-1-8c1-11 17-21 24-28 3-3 8-9 7-14-1-6-7-14-11-19-2-3-4-6-7-7s-5 0-8 1l-16 4c-5 2-21 10-26 4-2-3-1-7 1-10 4-3 13-5 18-7 6-3 18-7 22-12 5-7 0-19-3-25-4-7-10-4-16-6-8-2-16-1-24-1H49l-7-1c-6 0-11 2-17 0-17-7-8-24 6-27 3 0 12 3 19 2l7-1c3 0 9 3 19 2 7 0 20 0 24-6 4-5 3-12 5-18 1-5 4-9 1-14-4-7-13-8-19-12l-17-11c-2-1-5-4-3-6 1-2 4-2 5-2 6-1 12 0 17 3 4 3 16 9 20 9 7-1 18-15 19-21 3-13-5-16-14-24l-12-11c-7-6-10-14-3-22 5-5 13-6 19-2l6 6 8 7 7 7c4 4 8 8 13 7l11-6 11-5c6-3 14-6 16-13 2-5-1-8-2-13l-2-8-4-10-2-8c-1-5-5-14 5-13 5 1 10 7 12 12l3 12 5 9 5 10c6 6 11 4 18 3 3-1 4 0 7-2 2-1 5-4 6-7 2-6 1-12 0-18V66 56l1-10-1-9 2-6c1-7 0-9 7-13 3-1 13-1 16 1zm-56 116l-7 3-8 3-10 8-11 7-14 15a94 94 0 0 0-26 42l-4 10-2 24v19l1 9v8c1 7 5 14 7 21l3 11 8 12c11 19 20 29 39 42l8 6 7 3 7 4 25 7h8l9 2 11-1h8c14-1 14-2 27-6l8-2 7-3 8-2c8-5 21-16 27-23l10-7 10-16 7-9 3-8 4-6c4-10 7-29 7-40v-21c0-11-2-12-5-22l-2-11c0-3-3-6-4-9l-8-17c-6-9-22-27-30-33l-17-11-6-3-9-6-16-3-8-4-18-1h-11c-13 0-31 3-43 8zm3 43l5-1 21 3c5 1 7 10 5 15-3 5-16 4-22 8-5 4-4 7-4 12s-2 17 0 22 12 8 17 8h7c4 2 8 7 8 11-2 12-23 9-29 13-1 1-3 2-3 4l-1 22c0 5-1 18 2 22 4 6 16 5 22 9 5 3 9 13 4 18-4 3-8 3-12 3l-36-1c-4 1-20 2-23-1-3-2-3-15-3-19l-1-17 3-9-1-25-1-13c0-10 2-11 2-15 0-5-3-6-2-12l2-21v-8c0-7 1-7 4-12 8-12 14-12 27-16h9zm112 1c4 0 10-2 16 2 7 5 6 14 2 17-3 2-10 3-14 3-12 0-26-3-25 14 0 8-3 20 3 26 4 4 8 2 12 2l6 1c10 1 18-1 20 11l1 9-1 7 1 19-1 13 1 8v29c-3 12-15 8-22 8l-14 1-27-2h-5c-7 0-14-2-15-10-2-5 3-11 8-13 7-2 21 2 28-7 3-4 2-7 2-11l1-5-1-21c0-4 0-7-3-10s-7-3-11-3c-9 0-19 2-25-6-4-5-3-14-3-20l1-15c0-7-2-21 2-27 6-10 17-19 28-21l24-1c7 0 6 1 11 2z"/>
</svg>
